<svg width="50" height="75" viewBox="0 0 50 75" fill="none" xmlns="http://www.w3.org/2000/svg">
<path d="M13.6848 67.1947C13.6848 62.9509 10.8668 60.0011 6.83274 60.0011C2.79872 60.0011 0 62.9699 0 67.1947C0 71.4385 2.77942 74.3882 6.81344 74.3882C10.8668 74.3882 13.6848 71.4194 13.6848 67.1947ZM11.0791 67.1947C11.0791 70.1254 9.41914 72.0475 6.83274 72.0475C4.24634 72.0475 2.5864 70.1634 2.5864 67.1947C2.5864 64.2259 4.24634 62.3419 6.83274 62.3419C9.41914 62.3419 11.0791 64.2259 11.0791 67.1947Z" fill="#F2F2F2"/>
<path d="M18.0109 74.1598V60.0011H15.6754V74.1598H18.0109Z" fill="#F2F2F2"/>
<path d="M23.1832 74.1598H25.4994L29.4755 64.7588H27.0435L25.3064 69.0787C24.9011 70.1063 24.5537 71.0959 24.4185 71.6859C24.3027 71.1721 23.9746 70.2015 23.5693 69.0787L21.9093 64.7588H19.4001L23.1832 74.1598Z" fill="#F2F2F2"/>
<path d="M34.6236 74.4072C37.1135 74.4072 38.8507 73.1703 39.256 71.115H37.0749C36.8047 72.0094 35.9554 72.5042 34.6622 72.5042C33.0988 72.5042 32.2109 71.6668 32.0372 70.0112L39.2174 69.9922V69.288C39.2174 66.3573 37.403 64.4733 34.5464 64.4733C31.7477 64.4733 29.7982 66.5096 29.7982 69.4593C29.7982 72.371 31.7863 74.4072 34.6236 74.4072ZM34.5657 66.3764C35.9747 66.3764 36.8819 67.2327 36.8819 68.5268H32.0951C32.3267 67.1185 33.176 66.3764 34.5657 66.3764Z" fill="#F2F2F2"/>
<path d="M45.3676 74.4072C47.8575 74.4072 49.5947 73.1703 50 71.115H47.8189C47.5487 72.0094 46.6994 72.5042 45.4062 72.5042C43.8428 72.5042 42.9549 71.6668 42.7812 70.0112L49.9614 69.9922V69.288C49.9614 66.3573 48.1471 64.4733 45.2904 64.4733C42.4917 64.4733 40.5423 66.5096 40.5423 69.4593C40.5423 72.371 42.5303 74.4072 45.3676 74.4072ZM45.3097 66.3764C46.7187 66.3764 47.6259 67.2327 47.6259 68.5268H42.8391C43.0708 67.1185 43.92 66.3764 45.3097 66.3764Z" fill="#F2F2F2"/>
<path d="M25 50.0011C18.3222 50.0011 12.0439 47.4013 7.32357 42.6776C2.6032 37.9539 0 31.6789 0 25.0011C0 18.3234 2.59987 12.0451 7.32357 7.3247C12.0439 2.601 18.3222 0.00112915 25 0.00112915C31.6778 0.00112915 37.9561 2.601 42.6764 7.3247C47.3968 12.0451 50 18.3234 50 25.0011C50 31.6789 47.4001 37.9572 42.6764 42.6776C37.9527 47.3979 31.6778 50.0011 25 50.0011ZM25 1.67889C19.0246 1.67889 13.0493 3.95253 8.49867 8.50313C4.09121 12.9106 1.66445 18.7694 1.66445 25.0045C1.66445 31.2395 4.09121 37.0983 8.49867 41.5058C12.9061 45.9132 18.765 48.34 25 48.34C31.235 48.34 37.0939 45.9132 41.5013 41.5058C45.9088 37.0983 48.3356 31.2395 48.3356 25.0045C48.3356 18.7694 45.9088 12.9106 41.5013 8.50313C36.9507 3.95253 30.9754 1.67889 25 1.67889Z" fill="#F2F2F2"/>
<path d="M21.3216 40.1609C16.2883 40.1609 11.5579 38.2002 8.00264 34.6416C4.44405 31.083 2.48666 26.3526 2.48666 21.3227C2.48666 16.2927 4.44738 11.559 8.00264 8.00377C11.5612 4.44518 16.2916 2.48779 21.3216 2.48779C26.3515 2.48779 31.0852 4.44851 34.6405 8.00377C41.984 15.3473 41.984 27.298 34.6405 34.6449C31.0819 38.2035 26.3515 40.1642 21.3216 40.1642V40.1609ZM21.3216 4.14891C16.7343 4.14891 12.4201 5.93653 9.17774 9.17887C5.9354 12.4212 4.14778 16.7355 4.14778 21.3227C4.14778 25.9099 5.9354 30.2208 9.17774 33.4665C12.4201 36.7088 16.7343 38.4964 21.3216 38.4964C25.9088 38.4964 30.2197 36.7088 33.4654 33.4665C40.1598 26.7721 40.1598 15.8766 33.4654 9.17887C30.223 5.93653 25.9088 4.14891 21.3216 4.14891Z" fill="#F2F2F2"/>
<path d="M17.6432 30.3141C14.3975 30.3141 11.1518 29.079 8.68177 26.609C3.73836 21.6656 3.73836 13.6263 8.68177 8.6829C13.6252 3.73949 21.6645 3.73949 26.6079 8.6829C29.0013 11.0764 30.3196 14.2588 30.3196 17.6443C30.3196 21.0298 29.0013 24.2122 26.6079 26.6057C24.1378 29.0757 20.8922 30.3107 17.6465 30.3107L17.6432 30.3141ZM9.8602 9.86133C5.56592 14.1556 5.56592 21.1396 9.8602 25.4339C14.1545 29.7282 21.1385 29.7282 25.4328 25.4339C27.5133 23.3533 28.6585 20.5904 28.6585 17.6476C28.6585 14.7049 27.5133 11.9419 25.4328 9.86133C21.1385 5.56705 14.1545 5.56705 9.8602 9.86133Z" fill="#F2F2F2"/>
<path d="M13.9681 20.4805C12.3003 20.4805 10.6325 19.8447 9.36419 18.5764C6.82424 16.0364 6.82424 11.9053 9.36419 9.36532C11.9041 6.82537 16.0353 6.82537 18.5752 9.36532C21.1152 11.9053 21.1152 16.0364 18.5752 18.5764C17.3069 19.8447 15.6358 20.4805 13.9681 20.4805ZM13.9681 9.12231C12.7264 9.12231 11.4847 9.59501 10.5393 10.5404C8.64848 12.4312 8.64848 15.5071 10.5393 17.3979C12.4301 19.2888 15.506 19.2888 17.3968 17.3979C19.2876 15.5071 19.2876 12.4312 17.3968 10.5404C16.4514 9.59501 15.2097 9.12231 13.9681 9.12231Z" fill="#F2F2F2"/>
</svg>
