<svg width="18" height="17" viewBox="0 0 18 17" fill="none" xmlns="http://www.w3.org/2000/svg">
<path d="M11.9167 8.95945L11.1875 8.23028C11.493 7.28583 11.2986 6.50806 10.6042 5.89695C9.90971 5.28584 9.15971 5.11917 8.35416 5.39695L7.62499 4.66778C7.81943 4.55667 8.03124 4.47333 8.26041 4.41778C8.48957 4.36222 8.7361 4.33445 8.99999 4.33445C9.90277 4.33445 10.6701 4.65042 11.3021 5.28236C11.934 5.91431 12.25 6.68167 12.25 7.58445C12.25 7.84834 12.2187 8.09833 12.1562 8.33445C12.0937 8.57056 12.0139 8.77889 11.9167 8.95945ZM14.5833 11.5844L13.9375 10.9594C14.5764 10.4872 15.1354 9.96292 15.6146 9.38653C16.0937 8.81014 16.4583 8.20945 16.7083 7.58445C16.0139 6.08445 14.9861 4.89347 13.625 4.01153C12.2639 3.12959 10.7708 2.68861 9.14582 2.68861C8.61804 2.68861 8.07985 2.73722 7.53124 2.83445C6.98263 2.93167 6.52777 3.04972 6.16666 3.18861L5.43749 2.45945C5.89582 2.25111 6.45832 2.08097 7.12499 1.94903C7.79166 1.81709 8.44443 1.75111 9.08332 1.75111C10.9444 1.75111 12.6632 2.27889 14.2396 3.33445C15.816 4.39 16.9722 5.80667 17.7083 7.58445C17.375 8.37611 16.9479 9.10875 16.4271 9.78236C15.9062 10.456 15.2917 11.0567 14.5833 11.5844ZM15.8333 16.1053L12.4583 12.7719C12.0278 12.9664 11.5104 13.1226 10.9062 13.2407C10.3021 13.3588 9.66666 13.4178 8.99999 13.4178C7.08332 13.4178 5.34027 12.89 3.77082 11.8344C2.20138 10.7789 1.04166 9.36222 0.291656 7.58445C0.583323 6.86222 0.989573 6.16084 1.51041 5.48028C2.03124 4.79972 2.63888 4.18167 3.33332 3.62611L0.770823 1.08445L1.43749 0.396946L16.4583 15.3969L15.8333 16.1053ZM3.97916 4.29278C3.45138 4.65389 2.92707 5.14695 2.40624 5.77195C1.88541 6.39695 1.50693 7.00111 1.27082 7.58445C1.97916 9.08445 3.02777 10.2754 4.41666 11.1574C5.80554 12.0393 7.37499 12.4803 9.12499 12.4803C9.63888 12.4803 10.1493 12.4386 10.6562 12.3553C11.1632 12.2719 11.5278 12.1747 11.75 12.0636L10.2708 10.5844C10.118 10.6539 9.92013 10.7129 9.67707 10.7615C9.43402 10.8101 9.20832 10.8344 8.99999 10.8344C8.09721 10.8344 7.32985 10.5219 6.69791 9.89695C6.06596 9.27195 5.74999 8.50111 5.74999 7.58445C5.74999 7.37611 5.7743 7.15389 5.82291 6.91778C5.87152 6.68167 5.93054 6.48028 5.99999 6.31361L3.97916 4.29278Z" fill="#828282"/>
</svg>
